<svg xmlns="http://www.w3.org/2000/svg" style="display:none">
  <defs>
    <linearGradient id="g-gold" x1="0" y1="0" x2="1" y2="1"><stop offset="0%" stop-color="#fde68a"/><stop offset="100%" stop-color="#f59e0b"/></linearGradient>
    <linearGradient id="g-purple" x1="0" y1="0" x2="1" y2="1"><stop offset="0%" stop-color="#c4b5fd"/><stop offset="100%" stop-color="#7c3aed"/></linearGradient>
    <linearGradient id="g-green" x1="0" y1="0" x2="1" y2="1"><stop offset="0%" stop-color="#6ee7b7"/><stop offset="100%" stop-color="#059669"/></linearGradient>
    <linearGradient id="g-blue" x1="0" y1="0" x2="1" y2="1"><stop offset="0%" stop-color="#93c5fd"/><stop offset="100%" stop-color="#2563eb"/></linearGradient>
    <linearGradient id="g-red" x1="0" y1="0" x2="1" y2="1"><stop offset="0%" stop-color="#fca5a5"/><stop offset="100%" stop-color="#dc2626"/></linearGradient>
    <linearGradient id="g-orange" x1="0" y1="0" x2="1" y2="1"><stop offset="0%" stop-color="#fdba74"/><stop offset="100%" stop-color="#ea580c"/></linearGradient>
    <linearGradient id="g-cyan" x1="0" y1="0" x2="1" y2="1"><stop offset="0%" stop-color="#67e8f9"/><stop offset="100%" stop-color="#0891b2"/></linearGradient>
    <filter id="glow"><feGaussianBlur stdDeviation="2" result="b"/><feMerge><feMergeNode in="b"/><feMergeNode in="SourceGraphic"/></feMerge></filter>
  </defs>

  <!-- Feature cards -->
  <symbol id="ic-house" viewBox="0 0 64 64">
    <path fill="url(#g-purple)" d="M10 30 32 10l22 20v22a3 3 0 0 1-3 3H36V44H28v11H13a3 3 0 0 1-3-3V30Z"/>
    <path fill="#fff" opacity=".25" d="M28 44h8v11h-8z"/>
    <rect x="26" y="32" width="12" height="10" rx="1" fill="#1e1b2e"/>
  </symbol>
  <symbol id="ic-briefcase" viewBox="0 0 64 64">
    <rect x="10" y="24" width="44" height="28" rx="5" fill="url(#g-green)"/>
    <path fill="#064e3b" d="M24 24v-7a6 6 0 0 1 6-6h4a6 6 0 0 1 6 6v7"/>
    <rect x="28" y="36" width="8" height="8" rx="2" fill="#022c22"/>
  </symbol>
  <symbol id="ic-star" viewBox="0 0 64 64">
    <path fill="url(#g-gold)" filter="url(#glow)" d="m32 8 8 18 20 2-14 13 4 20-18-10-18 10 4-20L4 28l20-2 8-18Z"/>
  </symbol>
  <symbol id="ic-tasks" viewBox="0 0 64 64">
    <rect x="14" y="10" width="36" height="44" rx="5" fill="url(#g-blue)"/>
    <path stroke="#1e3a8a" stroke-width="2.5" stroke-linecap="round" d="M22 26h20M22 34h20M22 42h12"/>
    <path fill="#1e3a8a" d="M18 24h5v5h-5zm0 8h5v5h-5zm0 8h5v5h-5z"/>
    <path stroke="#fff" stroke-width="2" stroke-linecap="round" d="m20 26.5 1.5 1.5 3-3m0 8 1.5 1.5 3-3m0 8 1.5 1.5 3-3"/>
  </symbol>

  <!-- Licenses -->
  <symbol id="ic-car" viewBox="0 0 64 64">
    <path fill="url(#g-red)" d="M8 38 14 22h36l6 16v10H8V38Zm6 14h8v-6h28v6h8v-8H14v8Z"/>
    <circle cx="20" cy="44" r="5" fill="#450a0a"/><circle cx="44" cy="44" r="5" fill="#450a0a"/>
    <circle cx="20" cy="44" r="2.5" fill="#fca5a5"/><circle cx="44" cy="44" r="2.5" fill="#fca5a5"/>
    <path fill="#fff" opacity=".3" d="M16 26h32l4 10H12l4-10Z"/>
  </symbol>
  <symbol id="ic-moto" viewBox="0 0 64 64">
    <circle cx="16" cy="46" r="9" fill="url(#g-purple)"/><circle cx="48" cy="46" r="9" fill="url(#g-purple)"/>
    <circle cx="16" cy="46" r="4" fill="#2e1065"/><circle cx="48" cy="46" r="4" fill="#2e1065"/>
    <path fill="url(#g-purple)" d="M25 46h10l8-22h10l5 22h-6l-3-10H36l-5 10z"/>
  </symbol>
  <symbol id="ic-plane" viewBox="0 0 64 64">
    <path fill="url(#g-blue)" d="M32 6 18 30h10l-2 14 6-5 6 20 6-20-2-14h10L32 6Z"/>
    <path fill="#fff" opacity=".2" d="M30 30h4v8h-4z"/>
  </symbol>
  <symbol id="ic-boat" viewBox="0 0 64 64">
    <path fill="url(#g-green)" d="M6 42h52l-8 14H14L6 42Zm10-10 10-18h16l10 18H16Z"/>
    <path fill="#fff" opacity=".25" d="M28 14h8v10h-8z"/>
    <path stroke="#064e3b" stroke-width="2" d="M32 6v8"/>
  </symbol>
  <symbol id="ic-gun" viewBox="0 0 64 64">
    <path fill="url(#g-orange)" d="M6 30h34v8H6v-8Zm34 0h10l10 10v4h-10l-5-5h-5v-9Zm-2 18h14v8H38v-8Z"/>
    <rect x="10" y="32" width="8" height="4" rx="1" fill="#78350f"/>
  </symbol>

  <!-- Wallet & status -->
  <symbol id="ic-coin" viewBox="0 0 64 64">
    <circle cx="32" cy="32" r="26" fill="url(#g-gold)" filter="url(#glow)"/>
    <circle cx="32" cy="32" r="18" fill="none" stroke="#78350f" stroke-width="2.5"/>
    <text x="32" y="40" text-anchor="middle" font-size="22" font-weight="800" fill="#78350f">₵</text>
  </symbol>
  <symbol id="ic-cash" viewBox="0 0 64 64">
    <rect x="8" y="18" width="48" height="28" rx="4" fill="url(#g-green)"/>
    <circle cx="32" cy="32" r="8" fill="#064e3b"/>
    <text x="32" y="37" text-anchor="middle" font-size="14" font-weight="800" fill="#6ee7b7">$</text>
  </symbol>
  <symbol id="ic-bank" viewBox="0 0 64 64">
    <path fill="url(#g-cyan)" d="M8 28 32 12l24 16v6H8v-6Zm4 8h40v18H12V36Z"/>
    <rect x="18" y="40" width="6" height="10" fill="#164e63"/><rect x="29" y="40" width="6" height="10" fill="#164e63"/><rect x="40" y="40" width="6" height="10" fill="#164e63"/>
  </symbol>
  <symbol id="ic-warning" viewBox="0 0 64 64">
    <path fill="url(#g-gold)" d="M32 6 58 56H6L32 6Z"/>
    <path stroke="#78350f" stroke-width="4" stroke-linecap="round" fill="none" d="M32 24v16M32 46v4"/>
  </symbol>
  <symbol id="ic-ban" viewBox="0 0 64 64">
    <circle cx="32" cy="32" r="26" fill="none" stroke="url(#g-red)" stroke-width="6"/>
    <path stroke="url(#g-red)" stroke-width="6" stroke-linecap="round" d="M14 14l36 36"/>
  </symbol>
  <symbol id="ic-vip" viewBox="0 0 64 64">
    <path fill="url(#g-gold)" d="M8 24h48l-6 32H14L8 24Zm6 0 6 12 12-16 12 16 6-12 6 12H14Z"/>
  </symbol>

  <!-- Promo -->
  <symbol id="ic-roulette" viewBox="0 0 64 64">
    <circle cx="32" cy="32" r="28" fill="url(#g-purple)"/>
    <circle cx="32" cy="32" r="10" fill="#1e1b2e"/>
    <path stroke="#1e1b2e" stroke-width="2" d="M32 4v56M4 32h56M10 10l44 44M54 10 10 54"/>
    <circle cx="32" cy="32" r="4" fill="url(#g-gold)"/>
  </symbol>
  <symbol id="ic-flash" viewBox="0 0 64 64">
    <path fill="url(#g-orange)" filter="url(#glow)" d="M38 4 10 38h18l-6 22 32-36H34l4-20Z"/>
  </symbol>

  <!-- Dock navigation -->
  <symbol id="ic-dock-info" viewBox="0 0 64 64">
    <circle cx="32" cy="22" r="12" fill="url(#g-gold)"/><path fill="url(#g-gold)" d="M12 54c0-11 9-20 20-20s20 9 20 20H12Z"/>
  </symbol>
  <symbol id="ic-dock-faction" viewBox="0 0 64 64">
    <path fill="url(#g-blue)" d="M32 8 10 18v16c0 14 9.5 26 22 30 12.5-4 22-16 22-30V18L32 8Z"/>
    <path fill="#1e3a8a" d="M28 30h8v14h-8z"/>
  </symbol>
  <symbol id="ic-dock-quest" viewBox="0 0 64 64">
    <path fill="url(#g-gold)" d="m32 8 7 16 17 2-12 12 3 17-15-8-15 8 3-17-12-12 17-2 7-16Z"/>
  </symbol>
  <symbol id="ic-dock-help" viewBox="0 0 64 64">
    <circle cx="32" cy="32" r="26" fill="url(#g-cyan)"/>
    <text x="32" y="42" text-anchor="middle" font-size="28" font-weight="800" fill="#164e63">?</text>
  </symbol>
  <symbol id="ic-dock-ticket" viewBox="0 0 64 64">
    <path fill="url(#g-red)" d="M8 16a4 4 0 0 1 4-4h40a4 4 0 0 1 4 4v8a4 4 0 0 0 0 8v8a4 4 0 0 1-4 4H12a4 4 0 0 1-4-4v-8a4 4 0 0 0 0-8v-8Z"/>
    <path stroke="#450a0a" stroke-width="3" stroke-dasharray="4 4" d="M24 12v40"/>
  </symbol>
  <symbol id="ic-dock-rating" viewBox="0 0 64 64">
    <rect x="10" y="36" width="10" height="18" rx="2" fill="url(#g-green)"/>
    <rect x="27" y="24" width="10" height="30" rx="2" fill="url(#g-gold)"/>
    <rect x="44" y="14" width="10" height="40" rx="2" fill="url(#g-purple)"/>
  </symbol>
  <symbol id="ic-dock-roulette" viewBox="0 0 64 64">
    <circle cx="32" cy="32" r="28" fill="url(#g-purple)"/>
    <circle cx="32" cy="32" r="10" fill="#1e1b2e"/>
    <path stroke="#1e1b2e" stroke-width="2" d="M32 4v56M4 32h56"/>
    <circle cx="32" cy="32" r="4" fill="url(#g-gold)"/>
  </symbol>
  <symbol id="ic-dock-settings" viewBox="0 0 64 64">
    <circle cx="32" cy="32" r="10" fill="url(#g-cyan)"/>
    <path fill="url(#g-cyan)" d="M32 6v8M32 50v8M6 32h8M50 32h8M13 13l5.5 5.5M45.5 45.5 51 51M51 13l-5.5 5.5M18.5 45.5 13 51"/>
  </symbol>
  <symbol id="ic-dock-shop" viewBox="0 0 64 64">
    <path fill="url(#g-gold)" d="M10 18h44l-4 36H14L10 18Zm6 0 4-8h24l4 8"/>
    <circle cx="24" cy="50" r="4" fill="#78350f"/><circle cx="42" cy="50" r="4" fill="#78350f"/>
  </symbol>
  <symbol id="ic-dock-admin" viewBox="0 0 64 64">
    <path fill="url(#g-purple)" d="M32 6 12 16v14c0 12 8 22 20 26 12-4 20-14 20-26V16L32 6Z"/>
    <path fill="url(#g-gold)" d="M32 22 26 28v8l6 4 6-4v-8l-6-6Z"/>
  </symbol>

  <!-- Stat sidebar icons -->
  <symbol id="ic-stat-phone" viewBox="0 0 64 64"><rect x="18" y="8" width="28" height="48" rx="5" fill="url(#g-cyan)"/><circle cx="32" cy="48" r="3" fill="#164e63"/></symbol>
  <symbol id="ic-stat-job" viewBox="0 0 64 64">
    <rect x="10" y="24" width="44" height="28" rx="5" fill="url(#g-green)"/>
    <path fill="#064e3b" d="M24 24v-7a6 6 0 0 1 6-6h4a6 6 0 0 1 6 6v7"/>
  </symbol>
  <symbol id="ic-stat-faction" viewBox="0 0 64 64">
    <path fill="url(#g-blue)" d="M32 8 10 18v16c0 14 9.5 26 22 30 12.5-4 22-16 22-30V18L32 8Z"/>
  </symbol>
  <symbol id="ic-stat-time" viewBox="0 0 64 64"><circle cx="32" cy="32" r="24" fill="none" stroke="url(#g-gold)" stroke-width="4"/><path stroke="url(#g-gold)" stroke-width="4" stroke-linecap="round" d="M32 16v16l10 6"/></symbol>
  <symbol id="ic-stat-level" viewBox="0 0 64 64"><path fill="url(#g-gold)" d="M32 6 38 22h16l-13 10 5 16-16-11-16 11 5-16L10 22h16l6-16Z"/></symbol>
</svg>
